<svg xmlns="http://www.w3.org/2000/svg" xmlns:xlink="http://www.w3.org/1999/xlink" viewBox="0,0,256,256" width="80px" height="80px" fill-rule="nonzero"><g fill="none" fill-rule="nonzero" stroke="none" stroke-width="1" stroke-linecap="butt" stroke-linejoin="miter" stroke-miterlimit="10" stroke-dasharray="" stroke-dashoffset="0" font-family="none" font-weight="none" font-size="none" text-anchor="none" style="mix-blend-mode: normal"><g transform="scale(6.4,6.4)"><path d="M20,38.5c-10.201,0 -18.5,-8.299 -18.5,-18.5c0,-10.201 8.299,-18.5 18.5,-18.5c10.201,0 18.5,8.299 18.5,18.5c0,10.201 -8.299,18.5 -18.5,18.5z" fill="#0085f1"></path><path d="M20,2c9.925,0 18,8.075 18,18c0,9.925 -8.075,18 -18,18c-9.925,0 -18,-8.075 -18,-18c0,-9.925 8.075,-18 18,-18M20,1c-10.493,0 -19,8.507 -19,19c0,10.493 8.507,19 19,19c10.493,0 19,-8.507 19,-19c0,-10.493 -8.507,-19 -19,-19z" fill="#ff0000"></path><path transform="translate(19.99951,48.28427) rotate(-134.999)" d="M18.5,10h3v20h-3z" fill="#ffffff"></path><path transform="translate(-8.28427,20.00049) rotate(-45.001)" d="M18.5,10h3v20h-3z" fill="#ffffff"></path><g fill="#ffffff"><path d="M28.132,13.99l-2.122,-2.122l-6.01,6.011l-6.01,-6.011l-2.122,2.122l6.011,6.01l-6.011,6.01l2.122,2.122l6.01,-6.011l6.01,6.011l2.122,-2.122l-6.011,-6.01z"></path></g></g></g></svg>