<svg width="98" height="98" viewBox="0 0 98 98" fill="none" xmlns="http://www.w3.org/2000/svg">
<g filter="url(#filter0_d_112_10)">
<path d="M8 51.9565C8 59.1602 13.8398 65 21.0435 65V65C22.124 65 23 64.124 23 63.0435V20C23 18.3431 21.6569 17 20 17H11C9.34315 17 8 18.3431 8 20V51.9565Z" fill="#007CCF"/>
<path d="M22.5 63.0435V20C22.5 18.6193 21.3807 17.5 20 17.5H11C9.61929 17.5 8.5 18.6193 8.5 20V51.9565C8.5 58.8841 14.1159 64.5 21.0435 64.5C21.8479 64.5 22.5 63.8479 22.5 63.0435Z" stroke="#007CCF"/>
</g>
<g filter="url(#filter1_d_112_10)">
<path d="M71 54.913C71 47.2291 64.7709 41 57.087 41V41C55.9344 41 55 41.9344 55 43.087V84C55 85.6569 56.3431 87 58 87H68C69.6569 87 71 85.6569 71 84V54.913Z" fill="#007CCF"/>
</g>
<g filter="url(#filter2_d_112_10)">
<path d="M89 66.0435C89 58.8398 83.1602 53 75.9565 53V53C74.876 53 74 53.876 74 54.9565V84C74 85.6569 75.3431 87 77 87H86C87.6569 87 89 85.6569 89 84V66.0435Z" fill="#007CCF"/>
</g>
<g filter="url(#filter3_d_112_10)">
<path d="M28 23V82C28 83.6569 29.3431 85 31 85H47C48.6569 85 50 83.6569 50 82V23C50 16.9249 45.0751 12 39 12C32.9249 12 28 16.9249 28 23Z" stroke="#007CCF" stroke-width="4" shape-rendering="crispEdges"/>
</g>
<g filter="url(#filter4_d_112_10)">
<ellipse cx="76.5" cy="40.5" rx="7.5" ry="8.5" fill="#007CCF"/>
</g>
<defs>
<filter id="filter0_d_112_10" x="4" y="17" width="23" height="56" filterUnits="userSpaceOnUse" color-interpolation-filters="sRGB">
<feFlood flood-opacity="0" result="BackgroundImageFix"/>
<feColorMatrix in="SourceAlpha" type="matrix" values="0 0 0 0 0 0 0 0 0 0 0 0 0 0 0 0 0 0 127 0" result="hardAlpha"/>
<feOffset dy="4"/>
<feGaussianBlur stdDeviation="2"/>
<feComposite in2="hardAlpha" operator="out"/>
<feColorMatrix type="matrix" values="0 0 0 0 0 0 0 0 0 0 0 0 0 0 0 0 0 0 0.25 0"/>
<feBlend mode="normal" in2="BackgroundImageFix" result="effect1_dropShadow_112_10"/>
<feBlend mode="normal" in="SourceGraphic" in2="effect1_dropShadow_112_10" result="shape"/>
</filter>
<filter id="filter1_d_112_10" x="51" y="41" width="24" height="54" filterUnits="userSpaceOnUse" color-interpolation-filters="sRGB">
<feFlood flood-opacity="0" result="BackgroundImageFix"/>
<feColorMatrix in="SourceAlpha" type="matrix" values="0 0 0 0 0 0 0 0 0 0 0 0 0 0 0 0 0 0 127 0" result="hardAlpha"/>
<feOffset dy="4"/>
<feGaussianBlur stdDeviation="2"/>
<feComposite in2="hardAlpha" operator="out"/>
<feColorMatrix type="matrix" values="0 0 0 0 0 0 0 0 0 0 0 0 0 0 0 0 0 0 0.25 0"/>
<feBlend mode="normal" in2="BackgroundImageFix" result="effect1_dropShadow_112_10"/>
<feBlend mode="normal" in="SourceGraphic" in2="effect1_dropShadow_112_10" result="shape"/>
</filter>
<filter id="filter2_d_112_10" x="70" y="53" width="23" height="42" filterUnits="userSpaceOnUse" color-interpolation-filters="sRGB">
<feFlood flood-opacity="0" result="BackgroundImageFix"/>
<feColorMatrix in="SourceAlpha" type="matrix" values="0 0 0 0 0 0 0 0 0 0 0 0 0 0 0 0 0 0 127 0" result="hardAlpha"/>
<feOffset dy="4"/>
<feGaussianBlur stdDeviation="2"/>
<feComposite in2="hardAlpha" operator="out"/>
<feColorMatrix type="matrix" values="0 0 0 0 0 0 0 0 0 0 0 0 0 0 0 0 0 0 0.25 0"/>
<feBlend mode="normal" in2="BackgroundImageFix" result="effect1_dropShadow_112_10"/>
<feBlend mode="normal" in="SourceGraphic" in2="effect1_dropShadow_112_10" result="shape"/>
</filter>
<filter id="filter3_d_112_10" x="22" y="10" width="34" height="85" filterUnits="userSpaceOnUse" color-interpolation-filters="sRGB">
<feFlood flood-opacity="0" result="BackgroundImageFix"/>
<feColorMatrix in="SourceAlpha" type="matrix" values="0 0 0 0 0 0 0 0 0 0 0 0 0 0 0 0 0 0 127 0" result="hardAlpha"/>
<feOffset dy="4"/>
<feGaussianBlur stdDeviation="2"/>
<feComposite in2="hardAlpha" operator="out"/>
<feColorMatrix type="matrix" values="0 0 0 0 0 0 0 0 0 0 0 0 0 0 0 0 0 0 0.25 0"/>
<feBlend mode="normal" in2="BackgroundImageFix" result="effect1_dropShadow_112_10"/>
<feBlend mode="normal" in="SourceGraphic" in2="effect1_dropShadow_112_10" result="shape"/>
</filter>
<filter id="filter4_d_112_10" x="65" y="32" width="23" height="25" filterUnits="userSpaceOnUse" color-interpolation-filters="sRGB">
<feFlood flood-opacity="0" result="BackgroundImageFix"/>
<feColorMatrix in="SourceAlpha" type="matrix" values="0 0 0 0 0 0 0 0 0 0 0 0 0 0 0 0 0 0 127 0" result="hardAlpha"/>
<feOffset dy="4"/>
<feGaussianBlur stdDeviation="2"/>
<feComposite in2="hardAlpha" operator="out"/>
<feColorMatrix type="matrix" values="0 0 0 0 0 0 0 0 0 0 0 0 0 0 0 0 0 0 0.25 0"/>
<feBlend mode="normal" in2="BackgroundImageFix" result="effect1_dropShadow_112_10"/>
<feBlend mode="normal" in="SourceGraphic" in2="effect1_dropShadow_112_10" result="shape"/>
</filter>
</defs>
</svg>
