<svg width="210" height="210" viewBox="0 0 210 210" fill="none" xmlns="http://www.w3.org/2000/svg">
<g filter="url(#filter0_d_112_10)">
<path d="M15 117C15 128.046 23.9543 137 35 137H45C46.6569 137 48 135.657 48 134V47C48 45.3431 46.6569 44 45 44H18C16.3431 44 15 45.3431 15 47V117Z" fill="#007CCF"/>
<path d="M35 136.5H45C46.3807 136.5 47.5 135.381 47.5 134V47C47.5 45.6193 46.3807 44.5 45 44.5H18C16.6193 44.5 15.5 45.6193 15.5 47V117C15.5 127.77 24.2304 136.5 35 136.5Z" stroke="#007CCF"/>
</g>
<g filter="url(#filter1_d_112_10)">
<path d="M154 111C154 99.9543 145.046 91 134 91H122C120.343 91 119 92.3431 119 94V176C119 177.657 120.343 179 122 179H151C152.657 179 154 177.657 154 176V111Z" fill="#007CCF"/>
</g>
<g filter="url(#filter2_d_112_10)">
<path d="M194 134C194 122.954 185.046 114 174 114H164C162.343 114 161 115.343 161 117V176C161 177.657 162.343 179 164 179H191C192.657 179 194 177.657 194 176V134Z" fill="#007CCF"/>
</g>
<g filter="url(#filter3_d_112_10)">
<mask id="path-5-inside-1_112_10" fill="white">
<path d="M112 53C112 40.8497 102.15 31 90 31H77C64.8497 31 55 40.8497 55 53V174C55 176.761 57.2386 179 60 179H107C109.761 179 112 176.761 112 174V53Z"/>
</mask>
<path d="M112 53C112 40.8497 102.15 31 90 31H77C64.8497 31 55 40.8497 55 53V174C55 176.761 57.2386 179 60 179H107C109.761 179 112 176.761 112 174V53Z" stroke="#007CCF" stroke-width="22" shape-rendering="crispEdges" mask="url(#path-5-inside-1_112_10)"/>
</g>
<g filter="url(#filter4_d_112_10)">
<circle cx="166.5" cy="89.5" r="16.5" fill="#007CCF"/>
</g>
<defs>
<filter id="filter0_d_112_10" x="11" y="44" width="41" height="101" filterUnits="userSpaceOnUse" color-interpolation-filters="sRGB">
<feFlood flood-opacity="0" result="BackgroundImageFix"/>
<feColorMatrix in="SourceAlpha" type="matrix" values="0 0 0 0 0 0 0 0 0 0 0 0 0 0 0 0 0 0 127 0" result="hardAlpha"/>
<feOffset dy="4"/>
<feGaussianBlur stdDeviation="2"/>
<feComposite in2="hardAlpha" operator="out"/>
<feColorMatrix type="matrix" values="0 0 0 0 0 0 0 0 0 0 0 0 0 0 0 0 0 0 0.25 0"/>
<feBlend mode="normal" in2="BackgroundImageFix" result="effect1_dropShadow_112_10"/>
<feBlend mode="normal" in="SourceGraphic" in2="effect1_dropShadow_112_10" result="shape"/>
</filter>
<filter id="filter1_d_112_10" x="115" y="91" width="43" height="96" filterUnits="userSpaceOnUse" color-interpolation-filters="sRGB">
<feFlood flood-opacity="0" result="BackgroundImageFix"/>
<feColorMatrix in="SourceAlpha" type="matrix" values="0 0 0 0 0 0 0 0 0 0 0 0 0 0 0 0 0 0 127 0" result="hardAlpha"/>
<feOffset dy="4"/>
<feGaussianBlur stdDeviation="2"/>
<feComposite in2="hardAlpha" operator="out"/>
<feColorMatrix type="matrix" values="0 0 0 0 0 0 0 0 0 0 0 0 0 0 0 0 0 0 0.25 0"/>
<feBlend mode="normal" in2="BackgroundImageFix" result="effect1_dropShadow_112_10"/>
<feBlend mode="normal" in="SourceGraphic" in2="effect1_dropShadow_112_10" result="shape"/>
</filter>
<filter id="filter2_d_112_10" x="157" y="114" width="41" height="73" filterUnits="userSpaceOnUse" color-interpolation-filters="sRGB">
<feFlood flood-opacity="0" result="BackgroundImageFix"/>
<feColorMatrix in="SourceAlpha" type="matrix" values="0 0 0 0 0 0 0 0 0 0 0 0 0 0 0 0 0 0 127 0" result="hardAlpha"/>
<feOffset dy="4"/>
<feGaussianBlur stdDeviation="2"/>
<feComposite in2="hardAlpha" operator="out"/>
<feColorMatrix type="matrix" values="0 0 0 0 0 0 0 0 0 0 0 0 0 0 0 0 0 0 0.25 0"/>
<feBlend mode="normal" in2="BackgroundImageFix" result="effect1_dropShadow_112_10"/>
<feBlend mode="normal" in="SourceGraphic" in2="effect1_dropShadow_112_10" result="shape"/>
</filter>
<filter id="filter3_d_112_10" x="51" y="31" width="65" height="156" filterUnits="userSpaceOnUse" color-interpolation-filters="sRGB">
<feFlood flood-opacity="0" result="BackgroundImageFix"/>
<feColorMatrix in="SourceAlpha" type="matrix" values="0 0 0 0 0 0 0 0 0 0 0 0 0 0 0 0 0 0 127 0" result="hardAlpha"/>
<feOffset dy="4"/>
<feGaussianBlur stdDeviation="2"/>
<feComposite in2="hardAlpha" operator="out"/>
<feColorMatrix type="matrix" values="0 0 0 0 0 0 0 0 0 0 0 0 0 0 0 0 0 0 0.25 0"/>
<feBlend mode="normal" in2="BackgroundImageFix" result="effect1_dropShadow_112_10"/>
<feBlend mode="normal" in="SourceGraphic" in2="effect1_dropShadow_112_10" result="shape"/>
</filter>
<filter id="filter4_d_112_10" x="146" y="73" width="41" height="41" filterUnits="userSpaceOnUse" color-interpolation-filters="sRGB">
<feFlood flood-opacity="0" result="BackgroundImageFix"/>
<feColorMatrix in="SourceAlpha" type="matrix" values="0 0 0 0 0 0 0 0 0 0 0 0 0 0 0 0 0 0 127 0" result="hardAlpha"/>
<feOffset dy="4"/>
<feGaussianBlur stdDeviation="2"/>
<feComposite in2="hardAlpha" operator="out"/>
<feColorMatrix type="matrix" values="0 0 0 0 0 0 0 0 0 0 0 0 0 0 0 0 0 0 0.25 0"/>
<feBlend mode="normal" in2="BackgroundImageFix" result="effect1_dropShadow_112_10"/>
<feBlend mode="normal" in="SourceGraphic" in2="effect1_dropShadow_112_10" result="shape"/>
</filter>
</defs>
</svg>
