<svg width="64" height="64" viewBox="0 0 64 64" fill="none" xmlns="http://www.w3.org/2000/svg">
<g filter="url(#filter0_d_109_10)">
<path d="M5 32.3043C5 37.1068 8.89318 41 13.6957 41V41C14.416 41 15 40.416 15 39.6957V16C15 14.3431 13.6569 13 12 13H8C6.34315 13 5 14.3431 5 16V32.3043Z" fill="#007CCF"/>
<path d="M14.5 39.6957V16C14.5 14.6193 13.3807 13.5 12 13.5H8C6.61929 13.5 5.5 14.6193 5.5 16V32.3043C5.5 36.8307 9.16932 40.5 13.6957 40.5C14.1399 40.5 14.5 40.1399 14.5 39.6957Z" stroke="#007CCF"/>
</g>
<g filter="url(#filter1_d_109_10)">
<path d="M46 35.6957C46 30.8932 42.1068 27 37.3043 27V27C36.584 27 36 27.584 36 28.3043V51C36 52.6569 37.3431 54 39 54H43C44.6569 54 46 52.6569 46 51V35.6957Z" fill="#007CCF"/>
</g>
<g filter="url(#filter2_d_109_10)">
<path d="M58 42.6957C58 37.8932 54.1068 34 49.3043 34V34C48.584 34 48 34.584 48 35.3043V51C48 52.6569 49.3431 54 51 54H55.3913C56.832 54 58 52.832 58 51.3913V42.6957Z" fill="#007CCF"/>
</g>
<g filter="url(#filter3_d_109_10)">
<path d="M19 17.5V49C19 50.6569 20.3431 52 22 52H29C30.6569 52 32 50.6569 32 49V17.5C32 13.9102 29.0899 11 25.5 11C21.9101 11 19 13.9101 19 17.5Z" stroke="#007CCF" stroke-width="4" shape-rendering="crispEdges"/>
</g>
<g filter="url(#filter4_d_109_10)">
<circle cx="50" cy="27" r="5" fill="#007CCF"/>
</g>
<defs>
<filter id="filter0_d_109_10" x="1" y="13" width="18" height="36" filterUnits="userSpaceOnUse" color-interpolation-filters="sRGB">
<feFlood flood-opacity="0" result="BackgroundImageFix"/>
<feColorMatrix in="SourceAlpha" type="matrix" values="0 0 0 0 0 0 0 0 0 0 0 0 0 0 0 0 0 0 127 0" result="hardAlpha"/>
<feOffset dy="4"/>
<feGaussianBlur stdDeviation="2"/>
<feComposite in2="hardAlpha" operator="out"/>
<feColorMatrix type="matrix" values="0 0 0 0 0 0 0 0 0 0 0 0 0 0 0 0 0 0 0.25 0"/>
<feBlend mode="normal" in2="BackgroundImageFix" result="effect1_dropShadow_109_10"/>
<feBlend mode="normal" in="SourceGraphic" in2="effect1_dropShadow_109_10" result="shape"/>
</filter>
<filter id="filter1_d_109_10" x="32" y="27" width="18" height="35" filterUnits="userSpaceOnUse" color-interpolation-filters="sRGB">
<feFlood flood-opacity="0" result="BackgroundImageFix"/>
<feColorMatrix in="SourceAlpha" type="matrix" values="0 0 0 0 0 0 0 0 0 0 0 0 0 0 0 0 0 0 127 0" result="hardAlpha"/>
<feOffset dy="4"/>
<feGaussianBlur stdDeviation="2"/>
<feComposite in2="hardAlpha" operator="out"/>
<feColorMatrix type="matrix" values="0 0 0 0 0 0 0 0 0 0 0 0 0 0 0 0 0 0 0.25 0"/>
<feBlend mode="normal" in2="BackgroundImageFix" result="effect1_dropShadow_109_10"/>
<feBlend mode="normal" in="SourceGraphic" in2="effect1_dropShadow_109_10" result="shape"/>
</filter>
<filter id="filter2_d_109_10" x="44" y="34" width="18" height="28" filterUnits="userSpaceOnUse" color-interpolation-filters="sRGB">
<feFlood flood-opacity="0" result="BackgroundImageFix"/>
<feColorMatrix in="SourceAlpha" type="matrix" values="0 0 0 0 0 0 0 0 0 0 0 0 0 0 0 0 0 0 127 0" result="hardAlpha"/>
<feOffset dy="4"/>
<feGaussianBlur stdDeviation="2"/>
<feComposite in2="hardAlpha" operator="out"/>
<feColorMatrix type="matrix" values="0 0 0 0 0 0 0 0 0 0 0 0 0 0 0 0 0 0 0.25 0"/>
<feBlend mode="normal" in2="BackgroundImageFix" result="effect1_dropShadow_109_10"/>
<feBlend mode="normal" in="SourceGraphic" in2="effect1_dropShadow_109_10" result="shape"/>
</filter>
<filter id="filter3_d_109_10" x="13" y="9" width="25" height="53" filterUnits="userSpaceOnUse" color-interpolation-filters="sRGB">
<feFlood flood-opacity="0" result="BackgroundImageFix"/>
<feColorMatrix in="SourceAlpha" type="matrix" values="0 0 0 0 0 0 0 0 0 0 0 0 0 0 0 0 0 0 127 0" result="hardAlpha"/>
<feOffset dy="4"/>
<feGaussianBlur stdDeviation="2"/>
<feComposite in2="hardAlpha" operator="out"/>
<feColorMatrix type="matrix" values="0 0 0 0 0 0 0 0 0 0 0 0 0 0 0 0 0 0 0.25 0"/>
<feBlend mode="normal" in2="BackgroundImageFix" result="effect1_dropShadow_109_10"/>
<feBlend mode="normal" in="SourceGraphic" in2="effect1_dropShadow_109_10" result="shape"/>
</filter>
<filter id="filter4_d_109_10" x="41" y="22" width="18" height="18" filterUnits="userSpaceOnUse" color-interpolation-filters="sRGB">
<feFlood flood-opacity="0" result="BackgroundImageFix"/>
<feColorMatrix in="SourceAlpha" type="matrix" values="0 0 0 0 0 0 0 0 0 0 0 0 0 0 0 0 0 0 127 0" result="hardAlpha"/>
<feOffset dy="4"/>
<feGaussianBlur stdDeviation="2"/>
<feComposite in2="hardAlpha" operator="out"/>
<feColorMatrix type="matrix" values="0 0 0 0 0 0 0 0 0 0 0 0 0 0 0 0 0 0 0.25 0"/>
<feBlend mode="normal" in2="BackgroundImageFix" result="effect1_dropShadow_109_10"/>
<feBlend mode="normal" in="SourceGraphic" in2="effect1_dropShadow_109_10" result="shape"/>
</filter>
</defs>
</svg>
