<svg width="96" height="96" viewBox="0 0 96 96" fill="none" xmlns="http://www.w3.org/2000/svg">
<path d="M64.5 57.0522C58.7824 54.4592 52.3293 53 45.5 53C22.0279 53 3 70.237 3 91.5" stroke="black" stroke-width="5" stroke-linecap="round"/>
<circle cx="45" cy="31" r="21.5" stroke="black" stroke-width="5"/>
<path d="M70 57C81.8206 57 91 65.4929 91 75.5C91 85.5071 81.8206 94 70 94C58.1794 94 49 85.5071 49 75.5C49 65.4929 58.1794 57 70 57Z" stroke="#14AF00" stroke-width="4"/>
<path d="M81.6288 68.1605C82.2698 67.261 82.0601 66.0121 81.1605 65.3712C80.261 64.7302 79.0121 64.9399 78.3712 65.8395L80 67L81.6288 68.1605ZM80 67L78.3712 65.8395L66.9712 81.8395L68.6 83L70.2288 84.1605L81.6288 68.1605L80 67Z" fill="#14AF00"/>
<path d="M62.1469 74.1615C61.242 73.5281 59.995 73.7482 59.3615 74.6531C58.7281 75.558 58.9482 76.805 59.8531 77.4385L61 75.8L62.1469 74.1615ZM61 75.8L59.8531 77.4385L69.8531 84.4385L71 82.8L72.1469 81.1615L62.1469 74.1615L61 75.8Z" fill="#14AF00"/>
</svg>
